<svg width="20" height="20" viewBox="0 0 20 20" fill="none" xmlns="http://www.w3.org/2000/svg">
<path d="M5.22393 13.6627V15.3113H4.15338C4.01142 15.3113 3.87527 15.3677 3.77488 15.4681C3.6745 15.5685 3.6181 15.7047 3.6181 15.8466C3.6181 15.9886 3.6745 16.1247 3.77488 16.2251C3.87527 16.3255 4.01142 16.3819 4.15338 16.3819H5.22393V17.4524C5.22393 17.5944 5.28033 17.7306 5.38071 17.8309C5.48109 17.9313 5.61724 17.9877 5.75921 17.9877C5.90117 17.9877 6.03732 17.9313 6.1377 17.8309C6.23809 17.7306 6.29448 17.5944 6.29448 17.4524V16.3819H7.36503C7.507 16.3819 7.64315 16.3255 7.74353 16.2251C7.84392 16.1247 7.90031 15.9886 7.90031 15.8466C7.90031 15.7047 7.84392 15.5685 7.74353 15.4681C7.64315 15.3677 7.507 15.3113 7.36503 15.3113H6.29448V13.6627C6.87161 13.58 7.42147 13.3637 7.90031 13.0311C8.63035 13.5324 9.51435 13.7589 10.3955 13.6705C11.2767 13.582 12.098 13.1843 12.7139 12.5479C13.3297 11.9116 13.7003 11.0776 13.7598 10.194C13.8193 9.31045 13.5639 8.43435 13.039 7.72113L15.9294 4.82529V6.74693C15.9294 6.88889 15.9858 7.02504 16.0862 7.12543C16.1866 7.22581 16.3228 7.28221 16.4647 7.28221C16.6067 7.28221 16.7428 7.22581 16.8432 7.12543C16.9436 7.02504 17 6.88889 17 6.74693V3.53528C17 3.39331 16.9436 3.25716 16.8432 3.15678C16.7428 3.05639 16.6067 3 16.4647 3H13.2531C13.1111 3 12.975 3.05639 12.8746 3.15678C12.7742 3.25716 12.7178 3.39331 12.7178 3.53528C12.7178 3.67724 12.7742 3.81339 12.8746 3.91377C12.975 4.01416 13.1111 4.07055 13.2531 4.07055H15.1747L12.2842 6.96104C11.6539 6.48973 10.8913 6.22885 10.1044 6.2154C9.31748 6.20195 8.54633 6.43661 7.90031 6.8861C7.43662 6.56047 6.90512 6.34424 6.3458 6.25368C5.78648 6.16312 5.21391 6.20059 4.67116 6.36327C4.12841 6.52594 3.62962 6.80959 3.21232 7.19287C2.79502 7.57615 2.47008 8.04908 2.26195 8.57607C2.05382 9.10306 1.96791 9.67039 2.0107 10.2354C2.05348 10.8004 2.22385 11.3483 2.50897 11.8379C2.79409 12.3276 3.18654 12.7462 3.6568 13.0622C4.12706 13.3783 4.66287 13.5836 5.22393 13.6627V13.6627ZM7.90031 8.35276C8.25536 8.81277 8.44794 9.37749 8.44794 9.95859C8.44794 10.5397 8.25536 11.1044 7.90031 11.5644C7.54526 11.1044 7.35268 10.5397 7.35268 9.95859C7.35268 9.37749 7.54526 8.81277 7.90031 8.35276V8.35276ZM11.9309 8.04765C12.368 8.50963 12.6263 9.11215 12.6595 9.74725C12.6927 10.3824 12.4986 11.0085 12.1121 11.5136C11.7256 12.0186 11.1719 12.3695 10.5502 12.5034C9.92848 12.6373 9.27941 12.5454 8.71928 12.2442C9.23409 11.5854 9.51375 10.7733 9.51375 9.93717C9.51375 9.10106 9.23409 8.28897 8.71928 7.63014C9.22433 7.33228 9.81419 7.2111 10.3958 7.28573C10.9773 7.36037 11.5175 7.62656 11.9309 8.0423V8.04765ZM5.75921 7.28221C6.22839 7.28489 6.6884 7.41237 7.09204 7.65155C6.57724 8.31038 6.29758 9.12247 6.29758 9.95859C6.29758 10.7947 6.57724 11.6068 7.09204 12.2656C6.6884 12.5048 6.22839 12.6323 5.75921 12.635C5.04939 12.635 4.36864 12.353 3.86672 11.8511C3.3648 11.3492 3.08283 10.6684 3.08283 9.95859C3.08283 9.24877 3.3648 8.56802 3.86672 8.0661C4.36864 7.56418 5.04939 7.28221 5.75921 7.28221V7.28221Z" fill="#667080"/>
</svg>
